<svg id="圖層_1" data-name="圖層 1" xmlns="http://www.w3.org/2000/svg" viewBox="0 0 207.27 206.94"><g id="WvHoXc.tif"><path d="M18.52,113.32A103.64,103.64,0,1,1,121.93,216.77,103.53,103.53,0,0,1,18.52,113.32Zm201.86.69c.51-53.65-43.23-98.3-96.76-98.78C69,14.74,24.53,58,24,112.1s42.81,98.73,96.71,99.32A98.24,98.24,0,0,0,220.38,114Z" transform="translate(-18.52 -9.83)"/><path d="M101.69,127.71h52.5v8.75c-1.7.12-3.28.33-4.87.33q-22.93,0-45.89,0c-10.66,0-15-6.68-9.36-15.54,4.11-6.44,4.19-11.74.4-18.19s-6.8-13.67-9.88-20.66c-1.38-3.14-3.14-4.88-6.74-4.28s-4.59-1-4.58-4.48,1-5,4.57-4.57a22.25,22.25,0,0,0,5.47,0c3.76-.52,6,1,7,4.56s3.38,4.58,7.07,4.55c19.29-.18,38.58-.11,57.86-.08,8.32,0,10,2.81,6.06,10-4.32,7.86-8.87,15.6-12.94,23.58-2.7,5.29-6.68,7.39-12.44,7.26-8.14-.18-16.29,0-24.44,0C104.62,118.85,103.89,119.46,101.69,127.71Z" transform="translate(-18.52 -9.83)"/><path d="M154.5,151a8.93,8.93,0,0,1-9.52,8.11,8.89,8.89,0,1,1,1.51-17.72A9,9,0,0,1,154.5,151Z" transform="translate(-18.52 -9.83)"/><path d="M100.45,159.11a8.9,8.9,0,1,1,9-8.64A8.86,8.86,0,0,1,100.45,159.11Z" transform="translate(-18.52 -9.83)"/></g></svg>