<svg id="圖層_1" data-name="圖層 1" xmlns="http://www.w3.org/2000/svg" viewBox="0 0 209.02 207"><defs><style>.cls-1{fill:#fff;}</style></defs><path class="cls-1" d="M135.46,58.29c3.21,0,3.22-5,0-5S132.23,58.29,135.46,58.29Z"/><g id="MYBbZc.tif"><path class="cls-1" d="M219.51,215.09h-227v-225h227ZM1.12,103.48c0,57.14,46.05,103.44,102.93,103.52A103.5,103.5,0,1,0,1.12,102.93Z"/><path d="M1.12,103.48A103.24,103.24,0,1,1,104.08,207h0C47.17,206.92,1.14,160.62,1.12,103.48Zm102.41,98c53.68.58,98.12-43,98.81-96.95S159.23,6,105.12,5.46C51.61,5,7.07,48.3,6.44,101.46c-.65,55.14,42.36,99.45,97.09,100Z"/><path d="M91.13,124.27l48.44-48.39,4.86,5.57L91.53,134.1c-7.43-7.4-15.59-15.53-24.36-24.25l6-4.75Z"/></g></svg>