<svg id="圖層_1" data-name="圖層 1" xmlns="http://www.w3.org/2000/svg" viewBox="0 0 206.65 207.08"><defs><style>.cls-1{fill:#fff;}</style></defs><g id="I3vXSy.tif"><path class="cls-1" d="M228.57,221.15h-275v-250h275ZM0,103.4C0,160.54,46.06,207,102.92,207.08A103.65,103.65,0,0,0,206.65,103.66C206.72,46.59,160.56.15,103.65,0A103.29,103.29,0,0,0,0,102.91Z"/><path d="M0,103.4A103.28,103.28,0,0,1,103.16,0h.47c56.93.15,103.09,46.59,103,103.66A103.65,103.65,0,0,1,102.89,207.08C46,207-.07,160.54,0,103.4Zm103.11,98.18c54.08.12,98.28-44,98.28-98.09,0-53.89-43.89-97.85-97.89-98a98.07,98.07,0,0,0-.39,196.13Z"/><path d="M104.32,140.44H70c-7.3,0-10.75-3.39-10.78-10.58q-.09-25.37,0-50.72c0-7.37,3.29-10.63,10.69-10.65q34.32-.08,68.65,0c7.11,0,10.48,3.22,10.54,10.28q.19,25.62,0,51.23c-.06,7.26-3.52,10.4-10.93,10.43C126.87,140.48,115.59,140.44,104.32,140.44ZM68.88,78C67.46,86,67.46,86,73.07,89.47c9.27,5.8,18.61,11.5,27.78,17.44,2.49,1.62,4.27,1.49,6.69-.07,9.19-5.92,18.35-11.92,27.85-17.32,4.91-2.78,5.51-6.23,4.18-11.45-1.76,1-3.19,1.74-4.56,2.59-9,5.6-18.08,11.09-26.94,16.92-3,2-5.11,1.82-8-.08-7-4.68-14.28-9-21.46-13.51C75.46,82,72.25,80.09,68.88,78Z"/></g></svg>