<svg id="圖層_1" data-name="圖層 1" xmlns="http://www.w3.org/2000/svg" viewBox="0 0 206.66 206.83"><g id="TRjejZ.tif"><path d="M125.13,18.43A103.42,103.42,0,1,1,21.56,121.34,103.22,103.22,0,0,1,125.13,18.43Zm-.39,5.39A98,98,0,0,0,125,219.91c53.91-.1,97.9-44.08,98-97.95C223,67.85,178.93,23.78,124.74,23.82Z" transform="translate(-21.56 -18.43)"/><path d="M134.5,100.19c-9,0-17.91-.14-26.86.06-3.79.09-4.26-1.71-4.32-4.85-.06-3.34,1.25-4.25,4.4-4.23q27.11.15,54.23,0c3.21,0,4.36,1,4.36,4.31s-.8,4.85-4.44,4.77C152.75,100.06,143.62,100.19,134.5,100.19Z" transform="translate(-21.56 -18.43)"/><path d="M135.05,127.38c-8.94,0-17.88-.13-26.81.07-3.58.08-5-.88-4.95-4.71,0-3.58,1.34-4.47,4.69-4.45q26.8.19,53.61,0c3.29,0,4.73.8,4.75,4.43,0,3.81-1.42,4.8-5,4.72C152.59,127.25,143.82,127.38,135.05,127.38Z" transform="translate(-21.56 -18.43)"/><path d="M134.8,154.31c-8.94,0-17.88-.12-26.81.06-3.36.06-4.73-.89-4.68-4.46,0-3.29.79-4.73,4.43-4.7q27.06.22,54.11,0c3.6,0,4.43,1.37,4.47,4.69,0,3.59-1.39,4.52-4.72,4.46C152.67,154.2,143.73,154.31,134.8,154.31Z" transform="translate(-21.56 -18.43)"/><path d="M89.58,143.13a6.6,6.6,0,0,1,6.83,6.4A6.7,6.7,0,0,1,90,156.41,6.51,6.51,0,0,1,83.27,150,6.44,6.44,0,0,1,89.58,143.13Z" transform="translate(-21.56 -18.43)"/><path d="M96.43,95.71a6.73,6.73,0,0,1-6.58,6.7,6.47,6.47,0,0,1-6.61-6.58,6.39,6.39,0,0,1,6.51-6.64A6.51,6.51,0,0,1,96.43,95.71Z" transform="translate(-21.56 -18.43)"/><path d="M96.43,122.6A6.7,6.7,0,0,1,90,129.44,6.53,6.53,0,0,1,83.28,123a6.33,6.33,0,0,1,6.34-6.77A6.6,6.6,0,0,1,96.43,122.6Z" transform="translate(-21.56 -18.43)"/></g></svg>